<?xml version="1.0" encoding="UTF-8"?>
<svg id="Layer_1" xmlns="http://www.w3.org/2000/svg" version="1.1" viewBox="0 0 336.4 269.1">
  <!-- Generator: Adobe Illustrator 30.5.1, SVG Export Plug-In . SVG Version: 2.1.4 Build 3)  -->
  <path d="M162,98.3l-50.2-50.2,11.9-11.9,36.1,36.1V0h16.8v72.3l36.1-36.1,11.9,11.9-56.2,56.2-6.4-6ZM336.4,98.8v170.3H16.8s-16.8,0-16.8,0V98.8L53.9,0h47v16.8h-37.1S18,100.9,18,100.9h82.9s9,0,9,0l5,7.5,28.6,43h49.3l28.6-43,5-7.5h91.9l-45.9-84.1h-37.1V0h47l53.9,98.8ZM319.6,117.7h-84.1l-33.6,50.5h-67.3l-33.6-50.5H16.8v134.5h302.7V117.7Z"/>
</svg>