<?xml version="1.0" encoding="UTF-8"?>
<svg id="Layer_1" xmlns="http://www.w3.org/2000/svg" version="1.1" viewBox="0 0 110 111.7">
  <!-- Generator: Adobe Illustrator 30.3.0, SVG Export Plug-In . SVG Version: 2.1.3 Build 182)  -->
  <defs>
    <style>
      .st0 {
        fill-rule: evenodd;
      }
    </style>
  </defs>
  <path class="st0" d="M85.9,5.4l19.1,19.1c1.1,1.1,1.1,2.9,0,4L29.9,103.6c-.6.6-1.3.8-2,.8l-20.7,1.9c-1.8.2-3.2-1.3-3.1-3.1l1.9-20.9c0-.7.4-1.3.8-1.8h0S81.9,5.4,81.9,5.4c1.1-1.1,2.9-1.1,4,0h0ZM73.5,21.8l15.1,15.1,10.4-10.4-15.1-15.1-10.4,10.4ZM84.6,40.9l-15.1-15.1L11.6,83.8l-1.5,16.5,16.5-1.5,58-58Z"/>
</svg>