<?xml version="1.0" encoding="UTF-8"?>
<svg id="Layer_1" xmlns="http://www.w3.org/2000/svg" version="1.1" viewBox="0 0 109.3 91.5">
  <!-- Generator: Adobe Illustrator 30.3.0, SVG Export Plug-In . SVG Version: 2.1.3 Build 182)  -->
  <defs>
    <style>
      .st0 {
        fill: #010101;
      }
    </style>
  </defs>
  <path class="st0" d="M66.5,5.7c-.4,0-.8.2-1.1.4-.3.3-.4.7-.4,1.1v9.7c0,.4.2.8.4,1.1.3.3.7.4,1.1.4.8,0,1.5-.7,1.5-1.5V7.3c0-.8-.7-1.5-1.5-1.5h0ZM42.6,14.5c-.4,0-.8,0-1.1.4-.6.5-.7,1.5-.2,2.2l6.2,7.4c.3.3.6.5,1,.5s.8,0,1.1-.4c.6-.5.7-1.5.2-2.2l-6.2-7.4c-.3-.3-.6-.5-1-.5ZM90.3,14.5c-.4,0-.8.2-1,.5l-6.2,7.4c-.5.6-.5,1.6.2,2.2.6.5,1.6.5,2.2-.2l6.2-7.4c.5-.6.5-1.6-.2-2.2-.3-.3-.7-.4-1.1-.4h0ZM66.5,24.1c-8.6,0-16.1,5.7-18.5,13.8-3.6-3.1-8.3-4.9-13.5-4.9-11.6,0-21,9.4-21,20.9s0,1.7.2,2.5c-4.9,2.5-8.2,7.7-8.2,13.5,0,8.4,6.8,15.2,15.2,15.2h46.4c8-.2,14.4-6.8,14.4-14.8s-1.8-8-4.6-10.7c5.5-3.5,8.9-9.6,8.9-16.2,0-10.6-8.7-19.3-19.3-19.3h0ZM66.5,27.2c9,0,16.2,7.2,16.2,16.2s-3.3,11.4-8.5,14.2c0,0,0,0,0,0-.2-.1-.4-.2-.6-.3-.2-.1-.4-.2-.6-.3-.1,0-.2,0-.3-.2-.3-.1-.6-.2-.9-.3h0c0-.5,0-.9,0-1.4h0c0-.5,0-.9,0-1.3h0c0-.5,0-.8-.2-1.2,0,0,0,0,0,0,0-.4-.2-.8-.3-1.1,0,0,0,0,0,0-.1-.4-.2-.7-.4-1.1,0,0,0,0,0,0-.2-.3-.3-.7-.5-1,0,0,0,0,0,0-.2-.3-.4-.7-.6-1,0,0,0,0,0,0-.2-.3-.4-.6-.7-.9,0,0,0,0,0,0-.2-.3-.5-.6-.8-.8h0c-.3-.3-.5-.6-.8-.8,0,0,0,0,0,0-.3-.2-.6-.5-.9-.7,0,0,0,0,0,0-.3-.2-.6-.4-1-.6,0,0,0,0,0,0-.3-.2-.7-.4-1.1-.5,0,0,0,0,0,0-.4-.2-.7-.3-1.1-.4h0c-.4-.1-.8-.2-1.2-.3h0c-.4,0-.8-.2-1.2-.2h0c-.4,0-.8,0-1.3,0s-.6,0-.8,0h0c-.2,0-.5,0-.7,0-1.6.2-3.2.8-4.6,1.6-.2-.4-.4-.8-.7-1.2,0-.2-.2-.3-.3-.5,0-.2-.2-.3-.3-.4-.4-.6-.9-1.2-1.3-1.8,1.4-7.7,8.1-13.3,15.9-13.3h0ZM34.5,36.1c5.2,0,10,2.3,13.2,5.9.3.4.6.7.9,1.1,0,0,.2.2.2.3.2.2.3.5.5.7.1.2.2.4.4.5,0,.1.2.2.2.4.2.3.3.6.5.9,0,0,0,.2.1.2.2.3.3.7.5,1.1.1.3.3.5.5.6,0,0,.1,0,.2.1.2,0,.4.2.6.2h.2c.3,0,.6-.1.8-.3,1-.8,2.2-1.5,3.5-1.8.3,0,.5-.1.8-.2.5,0,1.1-.1,1.6-.1,4.2,0,7.7,2.8,8.9,6.6.2.6.3,1.2.4,1.8,0,.3,0,.6,0,1s0,.7,0,1.1,0,.7-.2,1c-.2.8.3,1.6,1.1,1.8.3,0,.7.2,1,.3,0,0,0,0,0,0,.9.3,1.8.8,2.6,1.3,3.1,2.1,5.1,5.7,5.1,9.7,0,6.4-5.2,11.6-11.6,11.7H20.7c-6.7,0-12.2-5.4-12.2-12.1s3.1-9.3,7.4-11.2c.7-.3,1-1,.9-1.7-.2-1-.3-2.1-.3-3.1,0-9.9,8-17.9,17.9-17.9h0ZM103.3,36.5c-.1,0-.3,0-.4,0l-9.5,1.7c-.8.2-1.4.9-1.3,1.8.2.8.9,1.4,1.8,1.3l9.5-1.7c.4,0,.8-.3,1-.6.2-.3.3-.7.3-1.2-.1-.7-.7-1.2-1.4-1.3h0ZM90.4,56.8c-.1,0-.3,0-.4,0-.4.1-.7.4-.9.7-.2.4-.3.8-.2,1.2.1.4.4.7.7.9l8.4,4.8c.7.4,1.7.2,2.1-.6.2-.3.3-.8.2-1.2-.1-.4-.4-.7-.7-.9l-8.4-4.8c-.2-.1-.5-.2-.8-.2h0ZM66.3,82.1c0,0-.2,0-.2,0,0,0,0,0,0,0h.2Z"/>
</svg>