<?xml version="1.0" encoding="UTF-8"?>
<svg id="Layer_1" xmlns="http://www.w3.org/2000/svg" version="1.1" viewBox="0 0 339.7 330.7">
  <!-- Generator: Adobe Illustrator 30.5.1, SVG Export Plug-In . SVG Version: 2.1.4 Build 3)  -->
  <path d="M169.8,287.8h-35c1.4,7,4.9,13.2,9.7,18.1,6.5,6.5,15.4,10.5,25.3,10.5s18.8-4,25.3-10.5c4.8-4.8,8.3-11.1,9.7-18.1h-35ZM35.1,144.7c3.8-1,7.8,1.2,8.8,5.1,1,3.8-1.2,7.8-5.1,8.8l-29.8,8c-3.8,1-7.8-1.2-8.8-5.1-1-3.8,1.2-7.8,5.1-8.8l29.8-8ZM73.8,27.9c2.8,2.8,2.8,7.4,0,10.2-2.8,2.8-7.4,2.8-10.2,0l-21.8-21.8c-2.8-2.8-2.8-7.4,0-10.2s7.4-2.8,10.2,0l21.8,21.8ZM38.8,81.1c3.8,1,6.1,5,5.1,8.8-1,3.8-5,6.1-8.8,5.1l-29.8-8c-3.8-1-6.1-5-5.1-8.8,1-3.8,5-6.1,8.8-5.1l29.8,8ZM300.8,158.6c-3.8-1-6.1-5-5.1-8.8,1-3.8,5-6.1,8.8-5.1l29.8,8c3.8,1,6.1,5,5.1,8.8-1,3.8-5,6.1-8.8,5.1l-29.8-8ZM276,38.1c-2.8,2.8-7.4,2.8-10.2,0s-2.8-7.4,0-10.2l21.8-21.8c2.8-2.8,7.4-2.8,10.2,0s2.8,7.4,0,10.2l-21.8,21.8ZM304.6,95c-3.8,1-7.8-1.2-8.8-5.1-1-3.8,1.2-7.8,5.1-8.8l29.8-8c3.8-1,7.8,1.2,8.8,5.1,1,3.8-1.2,7.8-5.1,8.8l-29.8,8ZM200.7,35.1c-1.9-4.3-4.6-8.1-7.8-11.2-6-5.9-14.1-9.5-23-9.5s-17,3.6-23,9.5c-3.2,3.2-5.9,7-7.8,11.2,9.7-3.2,20.1-4.9,30.8-4.9s21.1,1.7,30.8,4.9ZM122.1,42.4c1.7-11.3,7-21.4,14.7-28.9,8.7-8.4,20.3-13.6,33-13.6s24.4,5.1,33,13.6c7.7,7.5,13,17.6,14.7,28.9,8.4,4.6,16,10.4,22.7,17,18.1,18.1,29.3,43,29.3,70.4v4.5c0,33.3-.1,78.6,18.7,90.1,5,3,8.5,7.5,10.4,12.6.2.5.4,1,.5,1.5,1.5,5.2,1.4,10.8-.7,16.2l-11.3,28.5c-1.1,2.8-3.8,4.5-6.7,4.5h-60.9c-1.6,11-6.7,20.8-14.2,28.3-9.1,9.1-21.6,14.7-35.4,14.7s-26.4-5.6-35.4-14.7c-7.5-7.5-12.6-17.3-14.2-28.3h-60.9c-3.3,0-6-2.2-6.9-5.2l-11.1-27.9c-2.1-5.3-2.3-11-.8-16.2.1-.6.3-1.1.5-1.6,1.9-5.1,5.4-9.5,10.3-12.5,18.8-11.5,18.7-56.7,18.7-90.1v-4.5c0-27.4,11.2-52.3,29.3-70.4,6.7-6.7,14.3-12.4,22.7-17h0ZM64.1,232.8h211.6c-20.5-18.9-20.5-64.3-20.4-98.4v-4.5c0-23.5-9.6-44.8-25.1-60.2-6.5-6.5-14.1-12-22.4-16.1h0s-.1,0-.1,0c-11.4-5.7-24.2-8.8-37.7-8.8s-26.4,3.2-37.8,8.9h0c-8.3,4.2-15.9,9.6-22.4,16.2-15.5,15.5-25.1,36.8-25.1,60.2v4.5c0,34.1,0,79.5-20.5,98.4h0ZM285.6,247.2H54.1c.1.7.3,1.5.6,2.2l9.5,24h211.3l9.5-24c.3-.7.5-1.5.6-2.2h0Z"/>
</svg>