<?xml version="1.0" encoding="UTF-8"?>
<svg id="Layer_1" xmlns="http://www.w3.org/2000/svg" version="1.1" viewBox="0 0 329.5 329.5">
  <!-- Generator: Adobe Illustrator 30.5.1, SVG Export Plug-In . SVG Version: 2.1.4 Build 3)  -->
  <path d="M313.5,130.9l-21.2-5.9-9-22.2,10.8-19.1c4.9-8.7,3.5-19.4-3.5-26.4l-18.1-18.1c-6.9-6.9-18.1-8.3-26.4-3.5l-19.1,10.8-22.2-9-5.9-21.2c-2.8-9.4-11.5-16.3-21.2-16.3h-25.3c-9.7,0-18.7,6.6-21.2,16.3l-5.9,21.2-22.2,9-19.1-10.8c-8.7-4.9-19.4-3.5-26.4,3.5l-18.4,18.1c-6.9,6.9-8.3,18.1-3.5,26.4l10.8,19.1-9,22.2-21.2,5.9c-9.4,2.8-16.3,11.5-16.3,21.2v25.3c0,10.1,6.6,18.7,16.3,21.2l21.2,5.9,9,22.2-10.8,19.1c-4.9,8.7-3.5,19.4,3.5,26.4l18.1,18.1c6.9,6.9,18.1,8.3,26.4,3.5l19.1-10.8,22.2,9,5.9,21.2c2.8,9.4,11.5,16.3,21.2,16.3h25.3c9.7,0,18.7-6.6,21.2-16.3l5.9-21.2,22.2-9,19.1,10.8c8.7,4.9,19.4,3.5,26.4-3.5l18.1-18.1c6.9-6.9,8.3-17.7,3.5-26.4l-10.8-19.1,9-22.2,21.2-5.9c9.4-2.8,16.3-11.5,16.3-21.2v-25.3c.3-9.7-6.2-18.4-16-21.2ZM311.1,177.8c0,1.4-1,3.1-2.4,3.5l-29.9,8-16,38.9,15.3,27.1c.7,1.4.7,3.1-.7,4.2l-18.1,18.1c-1,1-2.8,1.4-4.2.7l-27.1-15.3-38.9,16-8.3,29.9c-.3,1.4-1.7,2.4-3.5,2.4h-25.3c-1.4,0-2.8-1-3.5-2.4l-8-29.9-38.9-16-27.1,15.3c-1.4.7-3.1.7-4.2-.7l-18.1-18.1c-1-1-1.4-2.8-.7-4.2l15.3-27.1-16-38.9-29.9-8.3c-1.4-.3-2.4-1.7-2.4-3.5v-25.3c0-1.7,1-2.8,2.4-3.5l29.9-8.3,16-38.9-15.3-26.7c-.7-1.4-.7-3.1.7-4.2l18.1-18.1c1-1,2.8-1.4,4.2-.7l27.1,15.3,38.9-16,8.3-29.9c.3-1.4,1.7-2.4,3.5-2.4h25.3c1.4,0,2.8,1,3.5,2.4l8.3,29.9,38.9,16.3,27.1-15.3c1.4-.7,3.1-.7,4.2.7l18.1,18.1c1,1,1.4,2.8.7,4.2l-15.3,27.1,15.6,38.5,29.9,8.3c1.4.3,2.4,1.7,2.4,3.5v25.3Z"/>
  <path d="M164.9,102.4c-34.4,0-62.5,28.1-62.5,62.5s28.1,62.5,62.5,62.5,62.5-28.1,62.5-62.5-28.1-62.5-62.5-62.5ZM164.9,208.7c-24.3,0-43.7-19.8-43.7-43.7s19.8-43.7,43.7-43.7,43.7,19.4,43.7,43.7-19.4,43.7-43.7,43.7Z"/>
</svg>