<?xml version="1.0" encoding="UTF-8"?>
<svg id="Layer_1" xmlns="http://www.w3.org/2000/svg" version="1.1" viewBox="0 0 339.7 262">
  <!-- Generator: Adobe Illustrator 30.5.1, SVG Export Plug-In . SVG Version: 2.1.4 Build 3)  -->
  <path d="M276.8,121.4c18.9-11.5,31.7-32.2,31.7-55.9C308.4,29.4,279.1,0,243,0s-57.2,21.8-63.8,51c-3.1-.5-6.3-.8-9.6-.8s-6.2.3-9.2.7C153.8,21.8,127.8,0,96.6,0S31.2,29.4,31.2,65.4s12.7,44.4,31.7,55.9C26.2,135.1,0,170.4,0,211.8h15.7c0-44.6,36.3-80.9,80.9-80.9s6.4.2,9.6.6c4.2,17,15.1,31.3,29.6,40.1-36.7,13.7-62.9,49-62.9,90.4h15.7c0-44.6,36.3-80.9,80.9-80.9s80.9,36.3,80.9,80.9h15.7c0-41.4-26.2-76.7-62.9-90.4,14.6-8.8,25.4-23.1,29.6-40.1,3.3-.4,6.6-.6,10-.6,44.6,0,80.9,36.3,80.9,80.9h15.7c0-41.4-26.2-76.7-62.9-90.4h0ZM243,15.7c27.4,0,49.7,22.3,49.7,49.7s-22.3,49.7-49.7,49.7-5.4-.4-8-.8c-.5-26.7-17.2-49.6-40.6-59.2,4.8-22.5,24.7-39.4,48.6-39.4h0ZM187.2,52.7c-.2,0-.3,0-.5-.1.2,0,.3,0,.5.1ZM152.9,52.5c-.2,0-.3,0-.5.1.2,0,.3,0,.5-.1ZM46.9,65.4c0-27.4,22.3-49.7,49.7-49.7s43.8,16.9,48.6,39.3h0c-23.6,9.6-40.4,32.5-41,59.4-2.5.4-5,.8-7.6.8-27.4,0-49.7-22.3-49.7-49.7h0ZM169.7,165.4c-27.4,0-49.7-22.3-49.7-49.7s22.3-49.7,49.7-49.7,49.7,22.3,49.7,49.7-22.3,49.7-49.7,49.7Z"/>
</svg>