<?xml version="1.0" encoding="UTF-8"?>
<svg id="Layer_1" xmlns="http://www.w3.org/2000/svg" version="1.1" viewBox="0 0 109.3 114.1">
  <!-- Generator: Adobe Illustrator 30.3.0, SVG Export Plug-In . SVG Version: 2.1.3 Build 182)  -->
  <defs>
    <style>
      .st0 {
        fill: #010101;
      }
    </style>
  </defs>
  <path class="st0" d="M100.4,81.8l-15-15c-.2-.2-.5-.4-.9-.4H24.5c-.3,0-.6.1-.9.4l-15,15c-.1.1-.2.2-.3.4,0,.2-.1.3,0,.5v20c0,.7.6,1.2,1.2,1.2h90c.7,0,1.2-.6,1.2-1.2v-20c0-.2,0-.3,0-.5,0-.2-.2-.3-.3-.4ZM25,68.9h59l12.5,12.5H12.5l12.5-12.5ZM98.2,101.4H10.7v-7c2.9-1.2,14.2-5.2,26.4-1.6,10.6,3.1,17,1.6,22.1.3,1.9-.5,3.9-.9,5.9-1,3.9,0,7.8.6,11.6,1.5,2.5.6,5.1,1.1,7.7,1.2,3.2-.2,6.3-.7,9.4-1.5,1.5-.3,3.2-.7,4.3-.9v8.9ZM98.2,90c-1.1.1-2.7.5-4.9.9-2.9.7-5.9,1.2-8.9,1.4-2.4-.2-4.9-.5-7.2-1.1-3.8-.8-8.2-1.7-12.1-1.6-2.2.1-4.4.5-6.5,1.1-5.1,1.2-10.8,2.7-20.8-.3-12.1-3.5-23-.3-27.1,1.3v-7.8h87.5v6.1Z"/>
  <path class="st0" d="M32.3,71.5c-4.6-1.9-7.4,1-7.5,1.1-.5.5-.4,1.3,0,1.8.2.2.5.3.9.3.3,0,.7-.1.9-.4,0,0,1.7-1.7,4.7-.5.6.3,1.4,0,1.6-.7.3-.6,0-1.4-.7-1.6h0Z"/>
  <path class="st0" d="M52.3,72.3c-2.5-1.2-4.6-1.3-6.3-.5-1.4.7-2.4,1.9-2.8,3.4-.2.7.2,1.3.9,1.5,0,0,0,0,0,0,0,0,.2,0,.3,0,.6,0,1.1-.4,1.2-.9.2-.7.7-1.4,1.4-1.8,1-.5,2.4-.3,4.1.5.6.3,1.4,0,1.7-.6s0-1.4-.6-1.7h0Z"/>
  <path class="st0" d="M68.3,74.1c.5,0,.9-.3,1.1-.7.3-.6,0-1.4-.6-1.7,0,0,0,0,0,0-2.4-1.2-5.2-1.2-7.6,0-.6.4-.7,1.1-.4,1.7,0,0,0,0,0,0,.4.6,1.1.7,1.7.4,1.6-.8,3.6-.8,5.2,0,.2,0,.3.1.5.1Z"/>
  <path class="st0" d="M73.9,76.1c-4.9-1-6.5,1.5-6.7,1.8-.4.6-.2,1.4.4,1.8,0,0,0,0,0,0,.2.1.4.2.6.2.4,0,.8-.2,1.1-.6,0,0,.9-1.3,4-.6.7.1,1.3-.3,1.5-1s-.3-1.3-1-1.5h0Z"/>
  <path class="st0" d="M77,71.7c-.7.2-1,1-.8,1.6.2.6.9,1,1.6.7,0,0,0,0,0,0,0,0,1.5-.4,3.5,2.1.2.3.6.5,1,.5.3,0,.6,0,.8-.3.5-.4.6-1.2.2-1.7,0,0,0,0,0,0-3.2-3.9-6-3-6.3-2.9Z"/>
  <path class="st0" d="M34,76.1c-.6.3-.8,1.1-.5,1.7.3.5.9.8,1.5.6,1.5-.6,3.3-.2,4.4,1,.2.3.6.4.9.4.7,0,1.3-.5,1.3-1.2,0-.4-.1-.7-.4-1-1.8-2-4.8-2.7-7.3-1.6Z"/>
  <path class="st0" d="M54.5,63.9c2,0,4-.7,5.5-2.1,1.5-1.3,2.4-3.2,2.4-5.2.2-6.4-6.7-13.9-7-14.2-.5-.5-1.3-.5-1.8,0-.3.3-7.2,7.8-7,14.2,0,2,.9,3.9,2.4,5.2,1.5,1.4,3.5,2.1,5.5,2.1ZM54.5,45.1c1.8,2.2,5.6,7.3,5.4,11.4,0,1.3-.6,2.6-1.6,3.5-2.2,2-5.5,2-7.7,0-1-.9-1.6-2.1-1.6-3.5-.2-4.1,3.6-9.2,5.4-11.4Z"/>
  <path class="st0" d="M34.6,46.5c3.1,2.8,7.9,2.8,11,0,1.5-1.3,2.4-3.2,2.4-5.2.3-6.4-6.7-13.9-7-14.2-.5-.5-1.3-.5-1.8,0-.3.3-7.2,7.8-7,14.2,0,2,.9,3.9,2.4,5.2h0ZM40.1,29.8c1.8,2.2,5.6,7.2,5.4,11.4,0,1.3-.6,2.6-1.6,3.4-2.2,2-5.5,2-7.7,0h0c-1-.9-1.6-2.1-1.6-3.5-.2-4.1,3.6-9.2,5.4-11.4Z"/>
  <path class="st0" d="M23.4,11.8c-.3.3-7.2,7.8-7,14.2,0,2,.9,3.9,2.4,5.2,3.1,2.8,7.9,2.8,11,0,1.5-1.3,2.3-3.2,2.4-5.2.3-6.4-6.7-13.9-7-14.2-.5-.5-1.3-.5-1.8,0,0,0,0,0,0,0ZM28.2,29.4c-2.2,2-5.5,2-7.6,0-1-.9-1.6-2.1-1.6-3.5-.2-4.1,3.6-9.2,5.4-11.4,1.8,2.2,5.6,7.2,5.4,11.4,0,1.3-.6,2.6-1.6,3.5Z"/>
  <path class="st0" d="M68.9,48.7c2,0,4-.7,5.5-2.1,1.5-1.3,2.4-3.2,2.4-5.2.2-6.4-6.7-13.9-7-14.2-.5-.5-1.3-.5-1.8,0-.3.3-7.2,7.8-7,14.2,0,2,.9,3.9,2.4,5.2,1.5,1.4,3.5,2.1,5.5,2.1ZM68.9,29.9c1.8,2.2,5.6,7.2,5.4,11.4,0,1.3-.6,2.5-1.6,3.4-2.2,2-5.5,2-7.7,0-1-.9-1.5-2.1-1.6-3.4-.2-4.1,3.6-9.2,5.4-11.4h0Z"/>
  <path class="st0" d="M84.7,33.4c2,0,4-.8,5.5-2.1,1.5-1.3,2.3-3.2,2.4-5.2.2-6.4-6.7-13.9-7-14.2-.5-.5-1.3-.5-1.8,0,0,0,0,0,0,0-.2.3-7.2,7.9-7,14.3,0,2,.9,3.9,2.4,5.2h0c1.5,1.4,3.5,2.1,5.5,2.1ZM84.7,14.6c1.8,2.2,5.6,7.2,5.4,11.4,0,1.3-.6,2.6-1.6,3.5-2.2,2-5.5,2-7.7,0-1-.9-1.6-2.1-1.6-3.5-.2-4.1,3.6-9.2,5.4-11.4Z"/>
</svg>